<svg xmlns="http://www.w3.org/2000/svg" viewBox="0 0 836 171" width="836" height="171" xmlns:xlink="http://www.w3.org/1999/xlink" version="1.1"><defs/><g transform="matrix(1, 0, 0, 1, 0, 0)"><g><g><g><path fill="none" stroke="#d3d3d3" stroke-dasharray="5px" stroke-miterlimit="10" stroke-opacity="0.8" paint-order="fill" d="M 0 0 L 1200 0"/></g><g><path fill="none" stroke="#d3d3d3" stroke-dasharray="5px" stroke-miterlimit="10" stroke-opacity="0.8" paint-order="fill" d="M 0 0 L 0 800"/></g></g><g id="_562EF1B3-DAE1-4955-8846-17F57FBD1583" transform="matrix(1, 0, 0, 1, 342, 37)" bpmn2nodeid="_562EF1B3-DAE1-4955-8846-17F57FBD1583"><g><path fill="none" stroke="none"/></g><g transform="matrix(1, 0, 0, 1, 0, 0)"><path id="_562EF1B3-DAE1-4955-8846-17F57FBD1583?shapeType=BACKGROUND" fill="#ffffff" stroke="none" paint-order="stroke" d="M 2 0 L 125 0 L 125 0 A 2 2 0 0 1 127 2 L 127 72 L 127 72 A 2 2 0 0 1 125 74 L 2 74 L 2 74 A 2 2 0 0 1 0 72 L 0 2 L 0 2 A 2 2 0 0 1 2 0 Z"/></g><g transform="matrix(1, 0, 0, 1, 0, 0)"><path id="_562EF1B3-DAE1-4955-8846-17F57FBD1583?shapeType=BORDER&amp;renderType=STROKE" fill="none" stroke="rgb(0, 136, 206)" stroke-dasharray="" stroke-miterlimit="10" stroke-width="1.5" paint-order="fill" d="M 2 0 L 125 0 L 125 0 A 2 2 0 0 1 127 2 L 127 72 L 127 72 A 2 2 0 0 1 125 74 L 2 74 L 2 74 A 2 2 0 0 1 0 72 L 0 2 L 0 2 A 2 2 0 0 1 2 0 Z"/></g><g><g transform="matrix(0.06, 0, 0, 0.06, 9.4, 9.4)"><g transform="matrix(1, 0, 0, 1, 0, 0)"><path id="_562EF1B3-DAE1-4955-8846-17F57FBD1583undefined" fill="#393f44" stroke="none" paint-order="stroke" d="M 0 0 M 128 344 L 128 296 C 128 293.7 127.2 291.8 125.8 290.2 C 124.4 288.6 122.4 288 120 288 L 40 288 C 37.7 288 35.8 288.8 34.2 290.2 C 32.6 291.6 32 293.7 32 296 L 32 344 C 32 346.3 32.8 348.2 34.2 349.8 C 35.6 351.4 37.6 352 40 352 L 120 352 C 122.3 352 124.2 351.2 125.8 349.8 C 127.4 348.4 128 346.3 128 344 Z M 0 0 M 128 248 L 128 200 C 128 197.7 127.2 195.8 125.8 194.2 C 124.4 192.6 122.4 192 120 192 L 40 192 C 37.7 192 35.8 192.8 34.2 194.2 C 32.6 195.6 32 197.7 32 200 L 32 248 C 32 250.3 32.8 252.2 34.2 253.8 C 35.6 255.4 37.6 256 40 256 L 120 256 C 122.3 256 124.2 255.2 125.8 253.8 C 127.4 252.4 128 250.3 128 248 Z M 0 0 M 376 352 C 378.3 352 380.2 351.2 381.8 349.8 C 383.4 348.4 384 346.4 384 344 L 384 296 C 384 293.7 383.2 291.8 381.8 290.2 C 380.4 288.6 378.4 288 376 288 L 168 288 C 165.7 288 163.8 288.8 162.2 290.2 C 160.6 291.6 160 293.6 160 296 L 160 344 C 160 346.3 160.8 348.2 162.2 349.8 C 163.6 351.4 165.6 352 168 352 L 376 352 Z M 0 0 M 128 152 L 128 104 C 128 101.7 127.2 99.8 125.8 98.2 C 124.4 96.6 122.3 96 120 96 L 40 96 C 37.7 96 35.8 96.8 34.2 98.2 C 32.6 99.6 32 101.7 32 104 L 32 152 C 32 154.3 32.8 156.2 34.2 157.8 C 35.6 159.4 37.6 160 40 160 L 120 160 C 122.3 160 124.2 159.2 125.8 157.8 C 127.4 156.4 128 154.3 128 152 Z M 0 0 M 376 256 C 378.3 256 380.2 255.2 381.8 253.8 C 383.4 252.4 384 250.4 384 248 L 384 200 C 384 197.7 383.2 195.8 381.8 194.2 C 380.4 192.6 378.4 192 376 192 L 168 192 C 165.7 192 163.8 192.8 162.2 194.2 C 160.6 195.6 160 197.6 160 200 L 160 248 C 160 250.3 160.8 252.2 162.2 253.8 C 163.6 255.4 165.6 256 168 256 L 376 256 Z M 0 0 M 376 160 C 378.3 160 380.2 159.2 381.8 157.8 C 383.4 156.4 384 154.4 384 152 L 384 104 C 384 101.7 383.2 99.8 381.8 98.2 C 380.4 96.6 378.3 96 376 96 L 168 96 C 165.7 96 163.8 96.8 162.2 98.2 C 160.6 99.6 160 101.6 160 104 L 160 152 C 160 154.3 160.8 156.2 162.2 157.8 C 163.6 159.4 165.6 160 168 160 L 376 160 Z M 0 0 M 416 72 L 416 344 C 416 355 412.1 364.4 404.2 372.2 C 396.3 380 387 384 376 384 L 40 384 C 29 384 19.6 380.1 11.8 372.2 C 4 364.3 0 355 0 344 L 0 72 C 0 61 3.9 51.6 11.8 43.8 C 19.7 36 29 32 40 32 L 376 32 C 387 32 396.4 35.9 404.2 43.8 C 412 51.7 416 61 416 72 Z"/></g></g></g><g transform="matrix(1, 0, 0, 1, 35, 29.5)"><text font-family="Open Sans" font-size="12pt" font-style="normal" font-weight="normal" text-decoration="normal" dominant-baseline="alphabetic" fill="#000000" stroke="none" text-anchor="middle" x="38.21" y="12">admission</text></g></g><g id="_26FC0FEF-BF34-4A06-B39B-A9E7BAC256A2" transform="matrix(1, 0, 0, 1, 88, 65)" bpmn2nodeid="_26FC0FEF-BF34-4A06-B39B-A9E7BAC256A2"><g><path fill="none" stroke="none"/></g><g transform="matrix(0.125, 0, 0, 0.125, 0, 0)"><g transform="matrix(1, 0, 0, 1, 0, 0)"><path id="_26FC0FEF-BF34-4A06-B39B-A9E7BAC256A2?shapeType=BACKGROUND" fill="#e8fae6" stroke="none" paint-order="stroke" d="M 0 0 M 444 224 C 444 263.9 434.2 300.8 414.4 334.5 C 394.7 368.2 368 394.9 334.4 414.5 C 300.8 434.1 263.9 444 224 444 C 184.1 444 147.2 434.2 113.5 414.4 C 79.8 394.7 53.1 368 33.5 334.4 C 13.9 300.8 4 263.9 4 224 C 4 184.1 13.8 147.2 33.6 113.5 C 53.4 79.8 80.1 53.1 113.6 33.5 C 147.1 13.9 184.1 4 224 4 C 263.9 4 300.8 13.8 334.5 33.6 C 368.2 53.4 394.9 80.1 414.5 113.6 C 434.1 147.1 444 184.1 444 224 Z"/></g><g><g transform="matrix(1, 0, 0, 1, 0, 0)"><g transform="matrix(1, 0, 0, 1, 0, 0)"><path id="_26FC0FEF-BF34-4A06-B39B-A9E7BAC256A2?shapeType=BORDER&amp;renderType=FILL" fill="#4aa241" stroke="none" paint-order="stroke" d="M 0 0 M 224 0 C 100.3 0 0 100.3 0 224 C 0 347.7 100.3 448 224 448 C 347.7 448 448 347.7 448 224 C 448 100.3 347.7 0 224 0 Z M 0 0 M 224 432 C 109.1 432 16 338.9 16 224 C 16 109.1 109.1 16 224 16 C 338.9 16 432 109.1 432 224 C 432 338.9 338.9 432 224 432 Z"/></g></g></g></g><g transform="matrix(1, 0, 0, 1, 28, 61)"/></g><g id="_31C248C6-0793-41C8-83F4-7DE098456C5D" transform="matrix(1, 0, 0, 1, 191, 37)" bpmn2nodeid="_31C248C6-0793-41C8-83F4-7DE098456C5D"><g><path fill="none" stroke="none"/></g><g transform="matrix(1, 0, 0, 1, 0, 0)"><path id="_31C248C6-0793-41C8-83F4-7DE098456C5D?shapeType=BACKGROUND" fill="#ffffff" stroke="none" paint-order="stroke" d="M 2 0 L 102 0 L 102 0 A 2 2 0 0 1 104 2 L 104 69 L 104 69 A 2 2 0 0 1 102 71 L 2 71 L 2 71 A 2 2 0 0 1 0 69 L 0 2 L 0 2 A 2 2 0 0 1 2 0 Z"/></g><g transform="matrix(1, 0, 0, 1, 0, 0)"><path id="_31C248C6-0793-41C8-83F4-7DE098456C5D?shapeType=BORDER&amp;renderType=STROKE" fill="none" stroke="rgb(0, 0, 0)" stroke-dasharray="" stroke-miterlimit="10" stroke-width="1.5" paint-order="fill" d="M 2 0 L 102 0 L 102 0 A 2 2 0 0 1 104 2 L 104 69 L 104 69 A 2 2 0 0 1 102 71 L 2 71 L 2 71 A 2 2 0 0 1 0 69 L 0 2 L 0 2 A 2 2 0 0 1 2 0 Z"/></g><g><g transform="matrix(0.06, 0, 0, 0.06, 9.4, 9.4)"><g transform="matrix(1, 0, 0, 1, 0, 0)"><path id="_31C248C6-0793-41C8-83F4-7DE098456C5Dundefined" fill="#393f44" stroke="none" paint-order="stroke" d="M 0 0 M 128 344 L 128 296 C 128 293.7 127.2 291.8 125.8 290.2 C 124.4 288.6 122.4 288 120 288 L 40 288 C 37.7 288 35.8 288.8 34.2 290.2 C 32.6 291.6 32 293.7 32 296 L 32 344 C 32 346.3 32.8 348.2 34.2 349.8 C 35.6 351.4 37.6 352 40 352 L 120 352 C 122.3 352 124.2 351.2 125.8 349.8 C 127.4 348.4 128 346.3 128 344 Z M 0 0 M 128 248 L 128 200 C 128 197.7 127.2 195.8 125.8 194.2 C 124.4 192.6 122.4 192 120 192 L 40 192 C 37.7 192 35.8 192.8 34.2 194.2 C 32.6 195.6 32 197.7 32 200 L 32 248 C 32 250.3 32.8 252.2 34.2 253.8 C 35.6 255.4 37.6 256 40 256 L 120 256 C 122.3 256 124.2 255.2 125.8 253.8 C 127.4 252.4 128 250.3 128 248 Z M 0 0 M 376 352 C 378.3 352 380.2 351.2 381.8 349.8 C 383.4 348.4 384 346.4 384 344 L 384 296 C 384 293.7 383.2 291.8 381.8 290.2 C 380.4 288.6 378.4 288 376 288 L 168 288 C 165.7 288 163.8 288.8 162.2 290.2 C 160.6 291.6 160 293.6 160 296 L 160 344 C 160 346.3 160.8 348.2 162.2 349.8 C 163.6 351.4 165.6 352 168 352 L 376 352 Z M 0 0 M 128 152 L 128 104 C 128 101.7 127.2 99.8 125.8 98.2 C 124.4 96.6 122.3 96 120 96 L 40 96 C 37.7 96 35.8 96.8 34.2 98.2 C 32.6 99.6 32 101.7 32 104 L 32 152 C 32 154.3 32.8 156.2 34.2 157.8 C 35.6 159.4 37.6 160 40 160 L 120 160 C 122.3 160 124.2 159.2 125.8 157.8 C 127.4 156.4 128 154.3 128 152 Z M 0 0 M 376 256 C 378.3 256 380.2 255.2 381.8 253.8 C 383.4 252.4 384 250.4 384 248 L 384 200 C 384 197.7 383.2 195.8 381.8 194.2 C 380.4 192.6 378.4 192 376 192 L 168 192 C 165.7 192 163.8 192.8 162.2 194.2 C 160.6 195.6 160 197.6 160 200 L 160 248 C 160 250.3 160.8 252.2 162.2 253.8 C 163.6 255.4 165.6 256 168 256 L 376 256 Z M 0 0 M 376 160 C 378.3 160 380.2 159.2 381.8 157.8 C 383.4 156.4 384 154.4 384 152 L 384 104 C 384 101.7 383.2 99.8 381.8 98.2 C 380.4 96.6 378.3 96 376 96 L 168 96 C 165.7 96 163.8 96.8 162.2 98.2 C 160.6 99.6 160 101.6 160 104 L 160 152 C 160 154.3 160.8 156.2 162.2 157.8 C 163.6 159.4 165.6 160 168 160 L 376 160 Z M 0 0 M 416 72 L 416 344 C 416 355 412.1 364.4 404.2 372.2 C 396.3 380 387 384 376 384 L 40 384 C 29 384 19.6 380.1 11.8 372.2 C 4 364.3 0 355 0 344 L 0 72 C 0 61 3.9 51.6 11.8 43.8 C 19.7 36 29 32 40 32 L 376 32 C 387 32 396.4 35.9 404.2 43.8 C 412 51.7 416 61 416 72 Z"/></g></g></g><g transform="matrix(1, 0, 0, 1, 35, 20.5)"><text font-family="Open Sans" font-size="12pt" font-style="normal" font-weight="normal" text-decoration="normal" dominant-baseline="alphabetic" fill="#000000" stroke="none" text-anchor="middle" x="32.74" y="12">Eligibility</text></g></g><g id="_BA4895E8-AF89-4313-B0AE-20F7C1FAFC20" transform="matrix(1, 0, 0, 1, 730, 43)" bpmn2nodeid="_BA4895E8-AF89-4313-B0AE-20F7C1FAFC20"><g><path fill="none" stroke="none"/></g><g transform="matrix(0.125, 0, 0, 0.125, 0, 0)"><g transform="matrix(1, 0, 0, 1, 0, 0)"><path id="_BA4895E8-AF89-4313-B0AE-20F7C1FAFC20?shapeType=BACKGROUND" fill="#fce7e7" stroke="none" paint-order="stroke" d="M 0 0 M 444 224 C 444 263.9 434.2 300.8 414.4 334.5 C 394.7 368.2 368 394.9 334.4 414.5 C 300.8 434.1 263.9 444 224 444 C 184.1 444 147.2 434.2 113.5 414.4 C 79.8 394.7 53.1 368 33.5 334.4 C 13.9 300.8 4 263.9 4 224 C 4 184.1 13.8 147.2 33.6 113.5 C 53.4 79.8 80.1 53.1 113.6 33.5 C 147.1 13.9 184.1 4 224 4 C 263.9 4 300.8 13.8 334.5 33.6 C 368.2 53.4 394.9 80.1 414.5 113.6 C 434.1 147.1 444 184.1 444 224 Z"/></g><g><g transform="matrix(1, 0, 0, 1, 0, 0)"><g transform="matrix(1, 0, 0, 1, 0, 0)"><path id="_BA4895E8-AF89-4313-B0AE-20F7C1FAFC20?shapeType=BORDER&amp;renderType=FILL" fill="#a30000" stroke="none" paint-order="stroke" d="M 0 0 M 224 0 C 100.3 0 0 100.3 0 224 C 0 347.7 100.3 448 224 448 C 347.7 448 448 347.7 448 224 C 448 100.3 347.7 0 224 0 Z M 0 0 M 224 400 C 126.8 400 48 321.2 48 224 C 48 126.8 126.8 48 224 48 C 321.2 48 400 126.8 400 224 C 400 321.2 321.2 400 224 400 Z"/></g></g></g></g><g transform="matrix(1, 0, 0, 1, 28, 61)"/></g><g id="_B3C474FA-B5D2-4CE9-A67D-9421FC5B7FDA" transform="matrix(1, 0, 0, 1, 541.5, 31)" bpmn2nodeid="_B3C474FA-B5D2-4CE9-A67D-9421FC5B7FDA"><g><path fill="none" stroke="none"/></g><g transform="matrix(1, 0, 0, 1, 0, 0)"><path id="_B3C474FA-B5D2-4CE9-A67D-9421FC5B7FDA?shapeType=BACKGROUND" fill="#ffffff" stroke="none" paint-order="stroke" d="M 2 0 L 121 0 L 121 0 A 2 2 0 0 1 123 2 L 123 66 L 123 66 A 2 2 0 0 1 121 68 L 2 68 L 2 68 A 2 2 0 0 1 0 66 L 0 2 L 0 2 A 2 2 0 0 1 2 0 Z"/></g><g transform="matrix(1, 0, 0, 1, 0, 0)"><path id="_B3C474FA-B5D2-4CE9-A67D-9421FC5B7FDA?shapeType=BORDER&amp;renderType=STROKE" fill="none" stroke="#000000" stroke-dasharray="" stroke-miterlimit="10" stroke-width="1.5" paint-order="fill" d="M 2 0 L 121 0 L 121 0 A 2 2 0 0 1 123 2 L 123 66 L 123 66 A 2 2 0 0 1 121 68 L 2 68 L 2 68 A 2 2 0 0 1 0 66 L 0 2 L 0 2 A 2 2 0 0 1 2 0 Z"/></g><g><g transform="matrix(0.06, 0, 0, 0.06, 9.4, 9.4)"><g transform="matrix(1, 0, 0, 1, 0, 0)"><path id="_B3C474FA-B5D2-4CE9-A67D-9421FC5B7FDAundefined" fill="#393f44" stroke="none" paint-order="stroke" d="M 0 0 M 128 344 L 128 296 C 128 293.7 127.2 291.8 125.8 290.2 C 124.4 288.6 122.4 288 120 288 L 40 288 C 37.7 288 35.8 288.8 34.2 290.2 C 32.6 291.6 32 293.7 32 296 L 32 344 C 32 346.3 32.8 348.2 34.2 349.8 C 35.6 351.4 37.6 352 40 352 L 120 352 C 122.3 352 124.2 351.2 125.8 349.8 C 127.4 348.4 128 346.3 128 344 Z M 0 0 M 128 248 L 128 200 C 128 197.7 127.2 195.8 125.8 194.2 C 124.4 192.6 122.4 192 120 192 L 40 192 C 37.7 192 35.8 192.8 34.2 194.2 C 32.6 195.6 32 197.7 32 200 L 32 248 C 32 250.3 32.8 252.2 34.2 253.8 C 35.6 255.4 37.6 256 40 256 L 120 256 C 122.3 256 124.2 255.2 125.8 253.8 C 127.4 252.4 128 250.3 128 248 Z M 0 0 M 376 352 C 378.3 352 380.2 351.2 381.8 349.8 C 383.4 348.4 384 346.4 384 344 L 384 296 C 384 293.7 383.2 291.8 381.8 290.2 C 380.4 288.6 378.4 288 376 288 L 168 288 C 165.7 288 163.8 288.8 162.2 290.2 C 160.6 291.6 160 293.6 160 296 L 160 344 C 160 346.3 160.8 348.2 162.2 349.8 C 163.6 351.4 165.6 352 168 352 L 376 352 Z M 0 0 M 128 152 L 128 104 C 128 101.7 127.2 99.8 125.8 98.2 C 124.4 96.6 122.3 96 120 96 L 40 96 C 37.7 96 35.8 96.8 34.2 98.2 C 32.6 99.6 32 101.7 32 104 L 32 152 C 32 154.3 32.8 156.2 34.2 157.8 C 35.6 159.4 37.6 160 40 160 L 120 160 C 122.3 160 124.2 159.2 125.8 157.8 C 127.4 156.4 128 154.3 128 152 Z M 0 0 M 376 256 C 378.3 256 380.2 255.2 381.8 253.8 C 383.4 252.4 384 250.4 384 248 L 384 200 C 384 197.7 383.2 195.8 381.8 194.2 C 380.4 192.6 378.4 192 376 192 L 168 192 C 165.7 192 163.8 192.8 162.2 194.2 C 160.6 195.6 160 197.6 160 200 L 160 248 C 160 250.3 160.8 252.2 162.2 253.8 C 163.6 255.4 165.6 256 168 256 L 376 256 Z M 0 0 M 376 160 C 378.3 160 380.2 159.2 381.8 157.8 C 383.4 156.4 384 154.4 384 152 L 384 104 C 384 101.7 383.2 99.8 381.8 98.2 C 380.4 96.6 378.3 96 376 96 L 168 96 C 165.7 96 163.8 96.8 162.2 98.2 C 160.6 99.6 160 101.6 160 104 L 160 152 C 160 154.3 160.8 156.2 162.2 157.8 C 163.6 159.4 165.6 160 168 160 L 376 160 Z M 0 0 M 416 72 L 416 344 C 416 355 412.1 364.4 404.2 372.2 C 396.3 380 387 384 376 384 L 40 384 C 29 384 19.6 380.1 11.8 372.2 C 4 364.3 0 355 0 344 L 0 72 C 0 61 3.9 51.6 11.8 43.8 C 19.7 36 29 32 40 32 L 376 32 C 387 32 396.4 35.9 404.2 43.8 C 412 51.7 416 61 416 72 Z"/></g></g></g><g transform="matrix(1, 0, 0, 1, 35, 19)"><text font-family="Open Sans" font-size="12pt" font-style="normal" font-weight="normal" text-decoration="normal" dominant-baseline="alphabetic" fill="#000000" stroke="none" text-anchor="middle" x="42.82" y="12">BusinessRu</text><text font-family="Open Sans" font-size="12pt" font-style="normal" font-weight="normal" text-decoration="normal" dominant-baseline="alphabetic" fill="#000000" stroke="none" text-anchor="middle" x="42.82" y="27">       le1        </text></g></g><g id="_7F8545D3-7FBD-4CAA-90D2-3677C127FA9F" bpmn2nodeid="_7F8545D3-7FBD-4CAA-90D2-3677C127FA9F"><g><path fill="none" stroke="#000000" stroke-dasharray="" stroke-miterlimit="10" paint-order="fill" d="M 144 85.3467 L 176.531 76.4549"/></g><g transform="matrix(1, 0, 0, 1, 144, 85.3467)"/><g transform="matrix(0.263662, 0.964615, -0.964615, 0.263662, 189.682, 67.6769)"><path fill="#000000" stroke="#000000" stroke-dasharray="" stroke-miterlimit="10" paint-order="fill" d="M 10 15 L 0 15 L 5 0 Z"/></g><g transform="matrix(1, 0, 0, 1, 146.637, 69.2772)"/></g><g id="_532D7160-FA63-4813-9259-8F7A42539B62" bpmn2nodeid="_532D7160-FA63-4813-9259-8F7A42539B62"><g><path fill="none" stroke="#000000" stroke-dasharray="" stroke-miterlimit="10" paint-order="fill" d="M 295 73.2879 L 327.002 73.7728"/></g><g transform="matrix(1, 0, 0, 1, 295, 73.2879)"/><g transform="matrix(-0.0151498, 0.999885, -0.999885, -0.0151498, 342.076, 69.0006)"><path fill="#000000" stroke="#000000" stroke-dasharray="" stroke-miterlimit="10" paint-order="fill" d="M 10 15 L 0 15 L 5 0 Z"/></g><g transform="matrix(1, 0, 0, 1, 295.151, 63.6451)"/></g><g id="_AF48BE83-E839-4219-8C98-B4056AB4A527" bpmn2nodeid="_AF48BE83-E839-4219-8C98-B4056AB4A527"><g><path fill="none" stroke="#000000" stroke-dasharray="" stroke-miterlimit="10" paint-order="fill" d="M 469 69.7978 L 526.533 65.9905"/></g><g transform="matrix(1, 0, 0, 1, 469, 69.7978)"/><g transform="matrix(0.066032, 0.997818, -0.997818, 0.066032, 541.17, 60.0109)"><path fill="#000000" stroke="#000000" stroke-dasharray="" stroke-miterlimit="10" paint-order="fill" d="M 10 15 L 0 15 L 5 0 Z"/></g><g transform="matrix(1, 0, 0, 1, 469.66, 57.4207)"/></g><g id="_5933E16E-C68D-408A-B948-CC7CAA0B554E" bpmn2nodeid="_5933E16E-C68D-408A-B948-CC7CAA0B554E"><g><path fill="none" stroke="#000000" stroke-dasharray="" stroke-miterlimit="10" paint-order="fill" d="M 664.5 65 L 715.063 69.6317"/></g><g transform="matrix(1, 0, 0, 1, 664.5, 65)"/><g transform="matrix(-0.0912211, 0.995831, -0.995831, -0.0912211, 730.456, 66.0208)"><path fill="#000000" stroke="#000000" stroke-dasharray="" stroke-miterlimit="10" paint-order="fill" d="M 10 15 L 0 15 L 5 0 Z"/></g><g transform="matrix(1, 0, 0, 1, 665.412, 58.0417)"/></g><g transform="matrix(1, 0, 0, 1, 342, 37)"/><g transform="matrix(1, 0, 0, 1, 88, 65)"/><g transform="matrix(1, 0, 0, 1, 730, 43)"/><g transform="matrix(1, 0, 0, 1, 541.5, 31)"/><g transform="matrix(1, 0, 0, 1, 191, 37)"/></g></g></svg>